<svg xmlns="http://www.w3.org/2000/svg" width="21" height="20" viewBox="0 0 21 20" fill="none">
  <mask id="mask0_728_646" style="mask-type:alpha" maskUnits="userSpaceOnUse" x="0" y="0" width="21" height="20">
    <rect x="0.5" width="20" height="20" fill="#D9D9D9"/>
  </mask>
  <g mask="url(#mask0_728_646)">
    <path d="M9.66667 17.5V14.1666C9.66667 13.3889 9.54861 12.8125 9.3125 12.4375C9.07639 12.0625 8.76389 11.6944 8.375 11.3333L9.5625 10.1458C9.72917 10.2986 9.88889 10.4618 10.0417 10.6354C10.1944 10.809 10.3472 10.993 10.5 11.1875C10.6944 10.9236 10.8924 10.691 11.0938 10.4896C11.2951 10.2882 11.5 10.0903 11.7083 9.89581C12.2361 9.4097 12.7153 8.8472 13.1458 8.20831C13.5764 7.56942 13.8056 6.45137 13.8333 4.85415L13.1042 5.58331C12.9514 5.73609 12.7604 5.81248 12.5313 5.81248C12.3021 5.81248 12.1042 5.73609 11.9375 5.58331C11.7708 5.41665 11.6875 5.21873 11.6875 4.98956C11.6875 4.7604 11.7708 4.56248 11.9375 4.39581L14.0833 2.24998C14.1667 2.16665 14.2569 2.10762 14.3542 2.0729C14.4514 2.03817 14.5556 2.02081 14.6667 2.02081C14.7778 2.02081 14.8819 2.03817 14.9792 2.0729C15.0764 2.10762 15.1667 2.16665 15.25 2.24998L17.4167 4.41665C17.5694 4.56942 17.6493 4.7604 17.6563 4.98956C17.6632 5.21873 17.5833 5.41665 17.4167 5.58331C17.2639 5.73609 17.0694 5.81248 16.8333 5.81248C16.5972 5.81248 16.4028 5.73609 16.25 5.58331L15.5 4.85415C15.4722 6.84026 15.1667 8.25345 14.5833 9.09373C14 9.93401 13.4167 10.618 12.8333 11.1458C12.3889 11.5486 12.0278 11.941 11.75 12.3229C11.4722 12.7048 11.3333 13.3194 11.3333 14.1666V17.5C11.3333 17.7361 11.2535 17.934 11.0938 18.0937C10.934 18.2535 10.7361 18.3333 10.5 18.3333C10.2639 18.3333 10.066 18.2535 9.90625 18.0937C9.74653 17.934 9.66667 17.7361 9.66667 17.5ZM5.66667 6.81248C5.61111 6.5347 5.57292 6.22915 5.55208 5.89581C5.53125 5.56248 5.51389 5.21526 5.5 4.85415L4.75 5.60415C4.59722 5.75692 4.40625 5.83331 4.17708 5.83331C3.94792 5.83331 3.75 5.74998 3.58333 5.58331C3.43056 5.43054 3.35417 5.23609 3.35417 4.99998C3.35417 4.76387 3.43056 4.56942 3.58333 4.41665L5.75 2.24998C5.83333 2.16665 5.92361 2.10762 6.02083 2.0729C6.11806 2.03817 6.22222 2.02081 6.33333 2.02081C6.44445 2.02081 6.54861 2.03817 6.64583 2.0729C6.74306 2.10762 6.83333 2.16665 6.91667 2.24998L9.08333 4.41665C9.25 4.58331 9.32986 4.77776 9.32292 4.99998C9.31597 5.2222 9.22917 5.41665 9.0625 5.58331C8.89583 5.73609 8.70139 5.81248 8.47917 5.81248C8.25695 5.81248 8.0625 5.73609 7.89583 5.58331L7.16667 4.87498C7.16667 5.16665 7.18056 5.44095 7.20833 5.6979C7.23611 5.95484 7.26389 6.19442 7.29167 6.41665L5.66667 6.81248ZM7.45833 10.4791C7.18056 10.1875 6.9132 9.8472 6.65625 9.45831C6.39931 9.06942 6.17361 8.59026 5.97917 8.02081L7.58333 7.62498C7.72222 7.99998 7.88195 8.31942 8.0625 8.58331C8.24306 8.8472 8.4375 9.08331 8.64583 9.29165L7.45833 10.4791Z" fill="#00001A"/>
  </g>
</svg>