<svg xmlns="http://www.w3.org/2000/svg" width="21" height="20" viewBox="0 0 21 20" fill="none">
  <mask id="mask0_728_372" style="mask-type:alpha" maskUnits="userSpaceOnUse" x="0" y="0" width="21" height="20">
    <rect x="0.5" width="20" height="20" fill="#D9D9D9"/>
  </mask>
  <g mask="url(#mask0_728_372)">
    <path d="M9.29166 15.1667L13.6042 10H10.2708L10.875 5.27084L7.02083 10.8333H9.91666L9.29166 15.1667ZM7.99999 12.5H5.41666C5.08333 12.5 4.8368 12.3507 4.67708 12.0521C4.51736 11.7535 4.53472 11.4653 4.72916 11.1875L10.9583 2.22918C11.0972 2.03473 11.2778 1.89932 11.5 1.82293C11.7222 1.74654 11.9514 1.75001 12.1875 1.83334C12.4236 1.91668 12.5972 2.06251 12.7083 2.27084C12.8194 2.47918 12.8611 2.7014 12.8333 2.93751L12.1667 8.33334H15.3958C15.7569 8.33334 16.0104 8.49307 16.1562 8.81251C16.3021 9.13196 16.2569 9.43057 16.0208 9.70834L9.16666 17.9167C9.01388 18.0972 8.82638 18.2153 8.60416 18.2708C8.38194 18.3264 8.16666 18.3056 7.95833 18.2083C7.74999 18.1111 7.5868 17.9618 7.46874 17.7604C7.35069 17.559 7.30555 17.3403 7.33333 17.1042L7.99999 12.5Z" fill="#00001A"/>
  </g>
</svg>