<?xml version="1.0" encoding="UTF-8"?><svg xmlns="http://www.w3.org/2000/svg" viewBox="0 0 50.48 50.49"><defs><style>.ac{fill:#49c6fc;}.ad{fill:#3971e2;}.ae{fill:#f23b4d;}.af{fill:#2ee59a;}.ag{fill:#f47e2f;}.ah{fill:#e47fef;}.ai{fill:#81d848;}.aj{fill:#f7bd2d;}</style></defs><g id="a"/><g id="b"><g id="c"><g id="d"><g id="e"><path id="f" class="ac" d="M25.24,50.24c-.31,0-.6-.14-.79-.38l-4.15-5.23c-.22-.28-.28-.66-.15-.99l4.15-10.59c.15-.39,.52-.64,.94-.64s.79,.25,.94,.64l4.15,10.59c.13,.33,.07,.71-.15,.99l-4.15,5.23c-.19,.24-.48,.38-.79,.38h0Z"/><path id="g" class="ac" d="M25.24,32.65c.29,0,.58,.16,.7,.48l4.15,10.59c.1,.25,.06,.53-.11,.75l-4.15,5.23c-.15,.19-.37,.29-.59,.29s-.44-.1-.59-.29l-4.15-5.23c-.17-.21-.21-.49-.11-.75l4.15-10.59c.13-.32,.42-.48,.7-.48Zm0-.5c-.52,0-.98,.31-1.17,.8l-4.15,10.59c-.16,.42-.09,.89,.19,1.24l4.15,5.23c.24,.3,.6,.48,.99,.48s.75-.17,.99-.48l4.15-5.23c.28-.35,.35-.83,.19-1.24l-4.15-10.59c-.19-.49-.65-.8-1.17-.8Z"/></g><g id="h"><path id="i" class="ag" d="M19.48,20.48c-.14,0-.27-.03-.41-.09l-10.42-4.55c-.33-.14-.56-.45-.6-.81l-.77-6.64c-.03-.28,.06-.57,.25-.79s.47-.34,.75-.34c.04,0,.08,0,.12,0l6.64,.77c.36,.04,.66,.27,.81,.6l4.55,10.42c.14,.32,.11,.66-.08,.95-.19,.29-.5,.46-.84,.46Z"/><path id="j" class="ag" d="M8.28,7.53s.06,0,.09,0l6.64,.77c.27,.03,.5,.2,.61,.45l4.55,10.42c.23,.53-.18,1.06-.69,1.06-.1,0-.2-.02-.31-.07l-10.42-4.55c-.25-.11-.42-.34-.45-.61l-.77-6.64c-.05-.45,.3-.84,.75-.84Zm0-.5c-.36,0-.7,.15-.94,.42-.24,.27-.35,.62-.31,.98l.77,6.64c.05,.44,.34,.83,.75,1.01l10.42,4.55c.16,.07,.33,.11,.51,.11,.42,0,.82-.21,1.05-.58,.23-.36,.27-.79,.1-1.19l-4.55-10.42c-.18-.41-.57-.7-1.01-.75l-6.64-.77c-.05,0-.1,0-.15,0h0Z"/></g><g id="k"><path id="l" class="ad" d="M42.21,43.21s-.08,0-.12,0l-6.64-.77c-.36-.04-.66-.27-.81-.6l-4.55-10.42c-.14-.32-.11-.66,.08-.95,.19-.29,.5-.46,.84-.46,.14,0,.27,.03,.41,.09l10.42,4.55c.33,.14,.56,.45,.6,.81l.77,6.64c.03,.28-.06,.57-.25,.79-.19,.21-.47,.34-.75,.34h0Z"/><path id="m" class="ad" d="M31.01,30.26c.1,0,.2,.02,.31,.07l10.42,4.55c.25,.11,.42,.34,.45,.61l.77,6.64c.05,.45-.3,.84-.75,.84-.03,0-.06,0-.09,0l-6.64-.77c-.27-.03-.5-.2-.61-.45l-4.55-10.42c-.23-.53,.18-1.06,.69-1.06Zm0-.5c-.42,0-.82,.21-1.05,.58-.23,.36-.27,.79-.1,1.19l4.55,10.42c.18,.41,.57,.7,1.01,.75l6.64,.77c.05,0,.1,0,.15,0,.36,0,.7-.15,.94-.42,.24-.27,.35-.62,.31-.98l-.77-6.64c-.05-.44-.34-.83-.75-1.01l-10.42-4.55c-.16-.07-.33-.11-.51-.11h0Z"/></g><g id="n"><path id="o" class="ah" d="M8.14,43.23c-.25,0-.49-.11-.66-.29-.17-.19-.25-.44-.22-.69l.78-6.79c.04-.36,.27-.66,.6-.81l10.42-4.55c.13-.06,.27-.09,.41-.09,.34,0,.65,.17,.84,.46s.22,.63,.08,.95l-4.55,10.42c-.14,.33-.45,.56-.81,.6l-6.79,.78s-.07,0-.1,0h0Z"/><path id="p" class="ah" d="M19.48,30.26c.51,0,.92,.53,.69,1.06l-4.55,10.42c-.11,.25-.34,.42-.61,.45l-6.79,.78s-.05,0-.07,0c-.37,0-.67-.32-.62-.7l.78-6.79c.03-.27,.2-.5,.45-.61l10.42-4.55c.1-.05,.21-.07,.31-.07m0-.5c-.17,0-.35,.04-.51,.11l-10.42,4.55c-.41,.18-.7,.57-.75,1.01l-.78,6.79c-.04,.32,.07,.64,.28,.88,.21,.24,.52,.38,.84,.38,.04,0,.09,0,.13,0l6.79-.78c.44-.05,.83-.34,1.01-.75l4.55-10.42c.17-.4,.14-.83-.1-1.19-.24-.36-.63-.58-1.05-.58h0Z"/></g><g id="q"><path id="r" class="ai" d="M31.01,20.48c-.34,0-.65-.17-.84-.46s-.22-.63-.08-.95l4.55-10.42c.14-.33,.45-.56,.81-.6l6.64-.77s.08,0,.12,0c.29,0,.56,.12,.75,.34,.19,.21,.28,.5,.25,.79l-.77,6.64c-.04,.36-.27,.66-.6,.81l-10.42,4.55c-.13,.06-.27,.09-.41,.09Z"/><path id="s" class="ai" d="M42.21,7.53c.44,0,.8,.39,.75,.84l-.77,6.64c-.03,.27-.2,.5-.45,.61l-10.42,4.55c-.1,.05-.21,.07-.31,.07-.51,0-.92-.53-.69-1.06l4.55-10.42c.11-.25,.34-.42,.61-.45l6.64-.77s.06,0,.09,0Zm0-.5s-.1,0-.15,0l-6.64,.77c-.44,.05-.83,.34-1.01,.75l-4.55,10.42c-.17,.4-.14,.83,.1,1.19,.24,.36,.63,.58,1.05,.58,.17,0,.35-.04,.51-.11l10.42-4.55c.41-.18,.69-.57,.75-1.01l.77-6.64c.04-.36-.07-.72-.31-.98-.24-.27-.58-.42-.94-.42h0Z"/></g><g id="t"><path id="u" class="ae" d="M6.49,30.4c-.23,0-.45-.08-.63-.22L.63,26.03c-.24-.19-.38-.48-.38-.79s.14-.6,.38-.79l5.23-4.15c.18-.14,.4-.22,.63-.22,.13,0,.25,.02,.37,.07l10.59,4.15c.39,.15,.64,.52,.64,.94s-.25,.79-.64,.94l-10.59,4.15c-.12,.05-.24,.07-.37,.07Z"/><path id="v" class="ae" d="M6.49,20.34c.09,0,.19,.02,.27,.05l10.59,4.15c.64,.25,.64,1.16,0,1.41l-10.59,4.15c-.09,.04-.18,.05-.27,.05-.17,0-.33-.06-.47-.16L.79,25.84c-.38-.3-.38-.88,0-1.18l5.23-4.15c.14-.11,.3-.16,.47-.16m0-.51c-.28,0-.56,.1-.78,.27L.48,24.26c-.3,.24-.48,.6-.48,.99s.17,.75,.48,.99l5.23,4.15c.22,.18,.5,.27,.78,.27,.16,0,.31-.03,.46-.09l10.59-4.15c.49-.19,.8-.65,.8-1.17,0-.52-.31-.98-.8-1.17l-10.59-4.15c-.15-.06-.3-.09-.46-.09h0Z"/></g><g id="w"><path id="x" class="af" d="M44,30.4c-.13,0-.25-.02-.37-.07l-10.59-4.15c-.39-.15-.64-.52-.64-.94s.25-.79,.64-.94l10.59-4.15c.12-.05,.24-.07,.37-.07,.23,0,.45,.08,.63,.22l5.23,4.15c.24,.19,.38,.48,.38,.79s-.14,.6-.38,.79l-5.23,4.15c-.18,.14-.4,.22-.63,.22h0Z"/><path id="y" class="af" d="M44,20.34c.17,0,.33,.06,.47,.16l5.23,4.15c.38,.3,.38,.88,0,1.18l-5.23,4.15c-.14,.11-.3,.16-.47,.16-.09,0-.19-.02-.27-.05l-10.59-4.15c-.64-.25-.64-1.16,0-1.41l10.59-4.15c.09-.04,.18-.05,.27-.05m0-.5c-.16,0-.31,.03-.46,.09l-10.59,4.15c-.49,.19-.8,.65-.8,1.17s.31,.98,.8,1.17l10.59,4.15c.15,.06,.3,.09,.46,.09,.28,0,.56-.1,.78-.27l5.23-4.15c.3-.24,.48-.6,.48-.99s-.17-.75-.48-.99l-5.23-4.15c-.22-.18-.5-.27-.78-.27h0Z"/></g><g id="a`"><path id="aa" class="aj" d="M25.24,18.09c-.42,0-.79-.25-.94-.64l-4.15-10.59c-.13-.33-.07-.71,.15-.99L24.45,.63c.19-.24,.48-.38,.79-.38s.6,.14,.79,.38l4.15,5.23c.22,.28,.28,.66,.15,.99l-4.15,10.59c-.15,.39-.52,.64-.94,.64h0Z"/><path id="ab" class="aj" d="M25.24,.5c.22,0,.44,.1,.59,.29l4.15,5.23c.17,.21,.21,.49,.11,.75l-4.15,10.59c-.13,.32-.42,.48-.7,.48s-.58-.16-.7-.48l-4.15-10.59c-.1-.25-.06-.53,.11-.75L24.65,.79c.15-.19,.37-.29,.59-.29Zm0-.5c-.39,0-.75,.17-.99,.48l-4.15,5.23c-.28,.35-.35,.83-.19,1.24l4.15,10.59c.19,.49,.65,.8,1.17,.8s.98-.31,1.17-.8l4.15-10.59c.16-.42,.09-.89-.19-1.24L26.23,.48c-.24-.3-.6-.48-.99-.48Z"/></g></g></g></g></svg>