<svg width="140" height="51" viewBox="0 0 140 51" fill="none" xmlns="http://www.w3.org/2000/svg">
<g id="Group">
<g id="Group_2">
<g id="Group_3">
<path id="Vector" d="M25.2445 50.2369C24.9347 50.2369 24.6476 50.0984 24.4562 49.8567L20.3059 44.6234C20.0843 44.3439 20.0264 43.9636 20.1573 43.6312L24.3076 33.0413C24.4587 32.6535 24.8289 32.4017 25.2445 32.4017C25.66 32.4017 26.0302 32.6535 26.1813 33.0413L30.3316 43.6312C30.4626 43.9636 30.4047 44.3439 30.183 44.626L26.0327 49.8592C25.8413 50.1009 25.5517 50.2395 25.2445 50.2395V50.2369Z" fill="#49C6FC"/>
<path id="Vector_2" d="M25.2444 32.651C25.534 32.651 25.8236 32.8121 25.947 33.132L30.0974 43.7218C30.1956 43.9737 30.1528 44.2557 29.9865 44.4673L25.8362 49.7005C25.6851 49.8919 25.4635 49.9876 25.2444 49.9876C25.0253 49.9876 24.8037 49.8919 24.6526 49.7005L20.5023 44.4673C20.3361 44.2557 20.2933 43.9737 20.3915 43.7218L24.5418 33.132C24.6677 32.8121 24.9573 32.651 25.2444 32.651ZM25.2444 32.1473C24.7231 32.1473 24.2622 32.4621 24.0708 32.9481L19.9205 43.538C19.7568 43.9535 19.8299 44.4295 20.1069 44.7796L24.2572 50.0128C24.4964 50.315 24.8566 50.4888 25.2444 50.4888C25.6322 50.4888 25.9899 50.315 26.2316 50.0128L30.3819 44.7796C30.659 44.4295 30.732 43.9535 30.5683 43.538L26.418 32.9481C26.2266 32.4621 25.7682 32.1473 25.2444 32.1473Z" fill="#49C6FC"/>
</g>
<g id="Group_4">
<path id="Vector_3" d="M19.4774 20.4821C19.3389 20.4821 19.2029 20.4519 19.0694 20.3965L8.64575 15.8432C8.31836 15.6997 8.08919 15.3899 8.04889 15.0348L7.2833 8.39884C7.25056 8.11426 7.34122 7.82716 7.53262 7.6131C7.72402 7.39904 7.99853 7.27563 8.2831 7.27563C8.32088 7.27563 8.36117 7.27563 8.39895 7.28319L15.0349 8.04878C15.39 8.08908 15.6998 8.31825 15.8433 8.64564L20.3966 19.0693C20.5351 19.3866 20.5074 19.7341 20.3185 20.0212C20.1296 20.3108 19.8148 20.4821 19.4774 20.4821Z" fill="#F47E2F"/>
<path id="Vector_4" d="M8.28303 7.52748C8.31325 7.52748 8.34095 7.52748 8.37118 7.53252L15.0071 8.29811C15.2741 8.32833 15.5058 8.49958 15.6141 8.74638L20.1673 19.17C20.3965 19.6964 19.9885 20.2303 19.4798 20.2303C19.3791 20.2303 19.2758 20.2101 19.1726 20.1648L8.74893 15.6115C8.50213 15.5032 8.33088 15.2741 8.30066 15.0046L7.53507 8.36863C7.48218 7.91532 7.83979 7.52748 8.28303 7.52748ZM8.28303 7.0238C7.92542 7.0238 7.58292 7.17743 7.34367 7.44689C7.10442 7.71384 6.9911 8.07146 7.03391 8.42907L7.7995 15.065C7.84987 15.5083 8.13696 15.8961 8.54746 16.0749L18.9711 20.6282C19.1348 20.6987 19.306 20.7365 19.4798 20.7365C19.9029 20.7365 20.2958 20.5224 20.5325 20.1597C20.7667 19.7996 20.802 19.3665 20.6307 18.9711L16.0775 8.54743C15.8987 8.13693 15.5108 7.85236 15.0676 7.79947L8.43162 7.03388C8.38125 7.02884 8.3334 7.02632 8.28555 7.02632L8.28303 7.0238Z" fill="#F47E2F"/>
</g>
<g id="Group_5">
<path id="Vector_5" d="M42.2057 43.2106C42.168 43.2106 42.1277 43.2106 42.0874 43.203L35.4514 42.4374C35.0963 42.3971 34.7865 42.168 34.643 41.8406L30.0897 31.417C29.9512 31.0996 29.9789 30.7521 30.1678 30.465C30.3567 30.1754 30.6715 30.0041 31.009 30.0041C31.1475 30.0041 31.2835 30.0344 31.4169 30.0898L41.8406 34.643C42.168 34.7866 42.3971 35.0963 42.4374 35.4514L43.203 42.0874C43.2358 42.372 43.1451 42.6591 42.9537 42.8731C42.7623 43.0872 42.4878 43.2106 42.2032 43.2106H42.2057Z" fill="#3971E2"/>
<path id="Vector_6" d="M31.0115 30.256C31.1122 30.256 31.2155 30.2761 31.3187 30.3215L41.7424 34.8747C41.9892 34.983 42.1604 35.2122 42.1906 35.4816L42.9562 42.1176C43.0091 42.5709 42.6515 42.9588 42.2083 42.9588C42.1781 42.9588 42.1504 42.9588 42.1201 42.9537L35.4842 42.1881C35.2172 42.1579 34.9855 41.9867 34.8772 41.7399L30.324 31.3162C30.0948 30.7899 30.5028 30.256 31.0115 30.256ZM31.0115 29.7523C30.5884 29.7523 30.1955 29.9664 29.9588 30.329C29.7246 30.6891 29.6893 31.1223 29.8606 31.5177L34.4138 41.9413C34.5927 42.3518 34.9805 42.6364 35.4237 42.6893L42.0597 43.4549C42.1101 43.4599 42.1579 43.4624 42.2058 43.4624C42.5634 43.4624 42.9059 43.3088 43.1451 43.0419C43.3844 42.7749 43.4977 42.4173 43.4549 42.0597L42.6893 35.4237C42.6389 34.9805 42.3518 34.5927 41.9413 34.4138L31.5177 29.8606C31.354 29.7901 31.1828 29.7523 31.009 29.7523H31.0115Z" fill="#3971E2"/>
</g>
<g id="Group_6">
<path id="Vector_7" d="M8.13953 43.2282C7.89021 43.2282 7.65096 43.1199 7.48223 42.9336C7.31601 42.7472 7.23543 42.4954 7.26565 42.246L8.04887 35.4514C8.08916 35.0963 8.31834 34.7866 8.64573 34.643L19.0694 30.0898C19.2003 30.0318 19.3388 30.0041 19.4773 30.0041C19.8148 30.0041 20.1296 30.1779 20.3185 30.465C20.5074 30.7521 20.5351 31.0996 20.3965 31.417L15.8433 41.8406C15.6997 42.168 15.39 42.3971 15.0349 42.4374L8.24026 43.2207C8.20501 43.2257 8.17227 43.2257 8.13701 43.2257L8.13953 43.2282Z" fill="#E47FEF"/>
<path id="Vector_8" d="M19.4773 30.256C19.986 30.256 20.3965 30.7899 20.1648 31.3162L15.6116 41.7399C15.5033 41.9867 15.2741 42.1579 15.0046 42.1881L8.21 42.9714C8.18482 42.9739 8.15964 42.9764 8.13697 42.9764C7.76677 42.9764 7.4696 42.654 7.51241 42.2763L8.29563 35.4816C8.32585 35.2147 8.4971 34.983 8.7439 34.8747L19.1675 30.3215C19.2708 30.2761 19.374 30.256 19.4748 30.256M19.4773 29.7523C19.3035 29.7523 19.1323 29.7876 18.9686 29.8606L8.54495 34.4138C8.13445 34.5927 7.84987 34.9805 7.79699 35.4237L7.01377 42.2184C6.97599 42.5382 7.07924 42.8605 7.29331 43.1023C7.50737 43.3441 7.81713 43.4826 8.13697 43.4826C8.17978 43.4826 8.22511 43.4826 8.26793 43.475L15.0626 42.6918C15.5058 42.6414 15.8936 42.3543 16.0724 41.9438L20.6257 31.5202C20.7995 31.1223 20.7642 30.6891 20.5275 30.3315C20.2907 29.9714 19.8979 29.7548 19.4748 29.7548L19.4773 29.7523Z" fill="#E47FEF"/>
</g>
<g id="Group_7">
<path id="Vector_9" d="M31.0115 20.4821C30.6741 20.4821 30.3593 20.3083 30.1704 20.0212C29.9815 19.7341 29.9538 19.3866 30.0923 19.0693L34.6456 8.64564C34.7891 8.31825 35.0989 8.08908 35.454 8.04878L42.0899 7.28319C42.1302 7.27815 42.168 7.27563 42.2058 7.27563C42.4929 7.27563 42.7649 7.39904 42.9563 7.6131C43.1477 7.82716 43.2383 8.11426 43.2056 8.39884L42.44 15.0348C42.3997 15.3899 42.1705 15.6997 41.8431 15.8432L31.4195 20.3965C31.2885 20.4544 31.15 20.4821 31.0115 20.4821Z" fill="#81D848"/>
<path id="Vector_10" d="M42.2058 7.52748C42.649 7.52748 43.0066 7.91532 42.9537 8.36863L42.1881 15.0046C42.1579 15.2715 41.9867 15.5032 41.7399 15.6115L31.3162 20.1648C31.213 20.2101 31.1097 20.2303 31.009 20.2303C30.5003 20.2303 30.0898 19.6964 30.3215 19.17L34.8747 8.74638C34.983 8.49958 35.2122 8.32833 35.4817 8.29811L42.1176 7.53252C42.1478 7.53 42.1755 7.52748 42.2058 7.52748ZM42.2058 7.0238C42.1579 7.0238 42.1101 7.02632 42.0597 7.03136L35.4237 7.79695C34.9805 7.84732 34.5927 8.13442 34.4139 8.54491L29.8606 18.9685C29.6868 19.3665 29.7221 19.7996 29.9588 20.1572C30.1955 20.5174 30.5884 20.7339 31.0115 20.7339C31.1853 20.7339 31.3565 20.6987 31.5202 20.6256L41.9439 16.0724C42.3544 15.8936 42.6389 15.5058 42.6918 15.0625L43.4574 8.42655C43.4977 8.06894 43.3844 7.71133 43.1476 7.44438C42.9084 7.17743 42.5659 7.0238 42.2083 7.0238H42.2058Z" fill="#81D848"/>
</g>
<g id="Group_8">
<path id="Vector_11" d="M6.49241 30.4021C6.26575 30.4021 6.04414 30.324 5.86533 30.183L0.632108 26.0327C0.390343 25.8413 0.251831 25.5516 0.251831 25.2444C0.251831 24.9372 0.390343 24.6475 0.632108 24.4561L5.86533 20.3058C6.04162 20.1648 6.26575 20.0867 6.49241 20.0867C6.61833 20.0867 6.74173 20.1094 6.8601 20.1572L17.4499 24.3076C17.8378 24.4587 18.0896 24.8289 18.0896 25.2444C18.0896 25.6625 17.8378 26.0301 17.4499 26.1812L6.8601 30.3316C6.74173 30.3769 6.61833 30.4021 6.49241 30.4021Z" fill="#F23B4D"/>
<path id="Vector_12" d="M6.49242 20.336C6.5856 20.336 6.67878 20.3537 6.76692 20.3889L17.3568 24.5392C17.9964 24.7911 17.9964 25.6952 17.3568 25.947L6.76692 30.0973C6.67878 30.1326 6.58308 30.1502 6.49242 30.1502C6.32369 30.1502 6.15747 30.0948 6.024 29.9865L0.790776 25.8362C0.410498 25.534 0.410498 24.9548 0.790776 24.6526L6.024 20.5022C6.15999 20.394 6.3262 20.3385 6.49242 20.3385M6.49242 19.8324C6.21036 19.8324 5.93082 19.9281 5.7092 20.1043L0.475976 24.2572C0.173769 24.4964 0 24.8565 0 25.2444C0 25.6322 0.173769 25.9898 0.475976 26.2316L5.7092 30.3819C5.93082 30.5582 6.20784 30.6539 6.49242 30.6539C6.65108 30.6539 6.8047 30.6237 6.95077 30.5683L17.5406 26.418C18.0267 26.2266 18.3389 25.7682 18.3415 25.2469C18.3415 24.7256 18.0267 24.2647 17.5406 24.0733L6.95077 19.923C6.8047 19.8651 6.64856 19.8349 6.49242 19.8349V19.8324Z" fill="#F23B4D"/>
</g>
<g id="Group_9">
<path id="Vector_13" d="M43.9964 30.4021C43.8705 30.4021 43.7471 30.3794 43.6287 30.3315L33.0388 26.1787C32.651 26.0276 32.3992 25.6574 32.3992 25.2419C32.3992 24.8238 32.651 24.4561 33.0388 24.305L43.6287 20.1547C43.7471 20.1094 43.8705 20.0842 43.9964 20.0842C44.223 20.0842 44.4446 20.1623 44.6235 20.3033L49.8567 24.4536C50.0984 24.645 50.2369 24.9346 50.2369 25.2419C50.2369 25.5491 50.0984 25.8387 49.8567 26.0301L44.6235 30.1804C44.4472 30.3215 44.223 30.3995 43.9964 30.3995V30.4021Z" fill="#2EE59A"/>
<path id="Vector_14" d="M43.9963 20.336C44.1651 20.336 44.3313 20.3914 44.4648 20.4997L49.698 24.65C50.0783 24.9522 50.0783 25.5315 49.698 25.8337L44.4648 29.984C44.3288 30.0923 44.1625 30.1477 43.9963 30.1477C43.9032 30.1477 43.81 30.1301 43.7218 30.0948L33.132 25.9445C32.4923 25.6927 32.4923 24.7885 33.132 24.5367L43.7218 20.3864C43.81 20.3511 43.9057 20.3335 43.9963 20.3335M43.9963 19.8324C43.8377 19.8324 43.6841 19.8626 43.5355 19.9205L32.9456 24.0708C32.4596 24.2622 32.1448 24.7206 32.1448 25.2444C32.1448 25.7682 32.4596 26.2266 32.9431 26.4154L43.533 30.5657C43.679 30.6237 43.8352 30.6539 43.9913 30.6539C44.2734 30.6539 44.5529 30.5582 44.7745 30.3819L50.0077 26.2316C50.3099 25.9923 50.4837 25.6322 50.4837 25.2444C50.4837 24.8565 50.3099 24.4989 50.0077 24.2572L44.7745 20.1069C44.5529 19.9306 44.2759 19.8349 43.9913 19.8349L43.9963 19.8324Z" fill="#2EE59A"/>
</g>
<g id="Group_10">
<path id="Vector_15" d="M25.2445 18.0896C24.8264 18.0896 24.4587 17.8378 24.3076 17.45L20.1573 6.86011C20.0264 6.52768 20.0843 6.14741 20.3059 5.86535L24.4537 0.632124C24.6451 0.390358 24.9347 0.251846 25.242 0.251846C25.5492 0.251846 25.8388 0.390358 26.0302 0.632124L30.1805 5.86535C30.4021 6.14489 30.4601 6.52516 30.3291 6.86011L26.1788 17.45C26.0252 17.8378 25.6575 18.0896 25.242 18.0896H25.2445Z" fill="#F7BD2D"/>
<path id="Vector_16" d="M25.2444 0.503679C25.4635 0.503679 25.6851 0.599378 25.8362 0.790776L29.9865 6.024C30.1528 6.23554 30.1956 6.5176 30.0974 6.76944L25.947 17.3593C25.8211 17.6791 25.5315 17.8378 25.2444 17.8378C24.9573 17.8378 24.6652 17.6791 24.5418 17.3593L20.3915 6.76944C20.2933 6.5176 20.3361 6.23554 20.5023 6.024L24.6526 0.790776C24.8037 0.599378 25.0253 0.503679 25.2444 0.503679ZM25.2444 0C24.8566 0 24.499 0.173769 24.2572 0.475976L20.1069 5.7092C19.8299 6.05925 19.7568 6.53523 19.9205 6.95077L24.0708 17.5406C24.2622 18.0267 24.7206 18.3389 25.2444 18.3389C25.7682 18.3389 26.2266 18.0241 26.418 17.5406L30.5683 6.95077C30.732 6.53523 30.659 6.05925 30.3819 5.7092L26.2316 0.475976C25.9924 0.173769 25.6322 0 25.2444 0Z" fill="#F7BD2D"/>
</g>
</g>
<g id="Group_11">
<path id="Vector_17" d="M59.6986 9.7915H56.8604V22.313H59.6986V9.7915Z" fill="#000119"/>
<path id="Vector_18" d="M64.5237 17.5557H66.6996L70.4671 22.313H73.7889L69.8829 17.4701C70.3664 17.3895 70.8122 17.256 71.2176 17.0621C71.9077 16.7347 72.4466 16.2814 72.837 15.7022C73.2273 15.1229 73.4212 14.4505 73.4212 13.6824C73.4212 12.9143 73.2273 12.2243 72.837 11.645C72.4466 11.0658 71.9077 10.6125 71.2176 10.2851C70.5276 9.95772 69.7267 9.7915 68.8126 9.7915H61.683V22.313H64.5212V17.5557H64.5237ZM69.9912 12.4635C70.3639 12.7531 70.5503 13.1586 70.5503 13.6824C70.5503 14.2062 70.3639 14.6142 69.9912 14.9089C69.6184 15.2035 69.1148 15.3521 68.4801 15.3521H64.5237V12.0304H68.4801C69.1148 12.0304 69.6184 12.1764 69.9912 12.4635Z" fill="#000119"/>
<path id="Vector_19" d="M78.2968 9.7915H75.4586V22.313H78.2968V9.7915Z" fill="#000119"/>
<path id="Vector_20" d="M86.7107 22.5623C87.9347 22.5623 89.0025 22.3885 89.9167 22.046C90.8283 21.701 91.5385 21.2149 92.0447 20.5853C92.5509 19.9557 92.8053 19.2254 92.8053 18.3893C92.8053 17.6892 92.6567 17.1099 92.362 16.6541C92.0674 16.1983 91.5763 15.8331 90.8938 15.5611C90.2088 15.2891 89.2871 15.0902 88.1311 14.9693L85.5095 14.652C84.7086 14.5513 84.1495 14.4002 83.8322 14.1936C83.5149 13.9871 83.3562 13.695 83.3562 13.3172C83.3562 12.8287 83.6232 12.4484 84.1571 12.1814C84.691 11.9145 85.4087 11.781 86.3103 11.781C86.955 11.781 87.5166 11.8566 87.9977 12.0077C88.4761 12.1588 88.8514 12.3703 89.1234 12.6423C89.3954 12.9143 89.5591 13.2341 89.617 13.6018H92.4879C92.4426 12.7909 92.153 12.0807 91.6191 11.4738C91.0852 10.8668 90.3675 10.3934 89.4659 10.0559C88.5643 9.71594 87.5343 9.54721 86.3783 9.54721C85.2224 9.54721 84.1521 9.70083 83.2731 10.0056C82.3942 10.3128 81.7117 10.7535 81.2282 11.3328C80.7447 11.912 80.5029 12.6121 80.5029 13.4356C80.5029 14.4807 80.8681 15.2967 81.5959 15.881C82.3237 16.4652 83.5023 16.8455 85.1267 17.0243L87.6476 17.3089C88.5391 17.4096 89.1486 17.5683 89.4759 17.7849C89.8033 18.0015 89.9696 18.3112 89.9696 18.7116C89.9696 19.2229 89.6825 19.6208 89.1108 19.9054C88.5366 20.1899 87.7559 20.331 86.7662 20.331C86.0862 20.331 85.4893 20.2453 84.9705 20.0716C84.4517 19.8978 84.0412 19.6535 83.734 19.3362C83.4268 19.0189 83.2404 18.6487 83.1749 18.2256H80.304C80.3493 19.0944 80.6439 19.8525 81.1879 20.5047C81.7344 21.1545 82.4799 21.6632 83.4242 22.0233C84.3712 22.386 85.4667 22.5648 86.7133 22.5648L86.7107 22.5623Z" fill="#000119"/>
<path id="Vector_21" d="M66.7853 33.691C66.1003 33.4191 65.1785 33.2201 64.0226 33.0992L61.401 32.7819C60.6001 32.6812 60.041 32.5301 59.7237 32.3236C59.4064 32.1171 59.2477 31.8249 59.2477 31.4472C59.2477 30.9586 59.5147 30.5783 60.0486 30.3114C60.5825 30.0444 61.3002 29.9109 62.2018 29.9109C62.8465 29.9109 63.4081 29.9865 63.8891 30.1376C64.3676 30.2887 64.7429 30.5002 65.0148 30.7722C65.2868 31.0442 65.4505 31.3641 65.5085 31.7317H68.3794C68.3341 30.9208 68.0445 30.2106 67.5106 29.6037C66.9767 28.9968 66.2589 28.5233 65.3573 28.1858C64.4558 27.8459 63.4257 27.6771 62.2698 27.6771C61.1139 27.6771 60.0435 27.8307 59.1646 28.1355C58.2857 28.4427 57.6032 28.8834 57.1197 29.4627C56.6362 30.0419 56.3944 30.742 56.3944 31.5655C56.3944 32.6107 56.7596 33.4266 57.4874 34.0109C58.2152 34.5952 59.3938 34.9754 61.0182 35.1542L63.5391 35.4388C64.4306 35.5395 65.04 35.6982 65.3674 35.9148C65.6948 36.1314 65.861 36.4411 65.861 36.8416C65.861 37.3528 65.5739 37.7507 65.0023 38.0353C64.4281 38.3199 63.6474 38.4609 62.6576 38.4609C61.9777 38.4609 61.3808 38.3753 60.862 38.2015C60.3432 38.0277 59.9327 37.7834 59.6255 37.4661C59.3182 37.1488 59.1319 36.7786 59.0664 36.3555H56.1954C56.2408 37.2244 56.5354 37.9824 57.0794 38.6347C57.6259 39.2844 58.3713 39.7931 59.3157 40.1532C60.2626 40.5159 61.3581 40.6947 62.6047 40.6947C63.8513 40.6947 64.8965 40.5209 65.8107 40.1784C66.7223 39.8334 67.4325 39.3474 67.9387 38.7178C68.4449 38.0882 68.6993 37.3578 68.6993 36.5217C68.6993 35.8216 68.5507 35.2424 68.256 34.7865C67.9614 34.3307 67.4703 33.9656 66.7878 33.6936L66.7853 33.691Z" fill="#000119"/>
<path id="Vector_22" d="M78.9768 31.2381C78.3421 30.8755 77.574 30.6967 76.6725 30.6967C75.8943 30.6967 75.1816 30.8805 74.5343 31.2482C73.9425 31.5857 73.4489 32.0591 73.0485 32.6661V27.5915H70.2606V40.4479H73.0485V35.8569C73.0485 35.2676 73.1568 34.7614 73.3734 34.3383C73.5899 33.9152 73.9022 33.5853 74.3077 33.346C74.7131 33.1068 75.1891 32.9884 75.7356 32.9884C76.5138 32.9884 77.1107 33.2075 77.5212 33.6482C77.9317 34.0889 78.1382 34.7362 78.1382 35.5924V40.4504H80.926V35.1744C80.926 34.2501 80.7598 33.4543 80.4249 32.7869C80.0899 32.1196 79.6064 31.6033 78.9717 31.2432L78.9768 31.2381Z" fill="#000119"/>
<path id="Vector_23" d="M91.5663 30.946L91.3271 33.0488C90.8486 32.3034 90.2542 31.7242 89.539 31.3137C88.8213 30.9032 88.0179 30.6967 87.1264 30.6967C86.2349 30.6967 85.3837 30.9057 84.6709 31.3237C83.9582 31.7418 83.4042 32.3261 83.0088 33.0766C82.6134 33.827 82.417 34.7034 82.417 35.7058C82.417 36.7081 82.6134 37.5668 83.0088 38.3198C83.4042 39.0703 83.9582 39.6546 84.6709 40.0726C85.3837 40.4907 86.2021 40.6997 87.1264 40.6997C88.0506 40.6997 88.8213 40.4932 89.539 40.0827C90.2568 39.6722 90.8511 39.0905 91.3245 38.34L91.5688 40.4504H94.4574L93.9059 35.7083L94.4574 30.951H91.5688L91.5663 30.946ZM89.3879 38.1662C88.927 38.4055 88.4334 38.5238 87.9096 38.5238C87.3858 38.5238 86.9249 38.4055 86.5245 38.1662C86.1241 37.927 85.8093 37.5971 85.5801 37.174C85.3509 36.7509 85.2376 36.2623 85.2376 35.7058C85.2376 35.1492 85.3509 34.6556 85.5801 34.2275C85.8093 33.7993 86.1215 33.4644 86.5245 33.2251C86.9249 32.9859 87.3858 32.8675 87.9096 32.8675C88.4334 32.8675 88.9245 32.9859 89.3879 33.2251C89.8488 33.4644 90.2593 33.7993 90.6144 34.2275C90.9695 34.6556 91.249 35.1492 91.4479 35.7058C91.2465 36.2623 90.9695 36.7509 90.6144 37.174C90.2567 37.5971 89.8488 37.927 89.3879 38.1662Z" fill="#000119"/>
<path id="Vector_24" d="M105.339 27.589L104.725 33.1169C104.712 33.0967 104.702 33.0766 104.69 33.0564C104.211 32.3059 103.612 31.7242 102.894 31.3112C102.176 30.9007 101.373 30.6942 100.481 30.6942C99.5899 30.6942 98.7386 30.9032 98.0259 31.3212C97.3132 31.7393 96.7592 32.3236 96.3638 33.074C95.9684 33.8245 95.772 34.7009 95.772 35.7033C95.772 36.7056 95.9684 37.5643 96.3638 38.3173C96.7592 39.0678 97.3132 39.6521 98.0259 40.0701C98.7386 40.4882 99.5571 40.6972 100.481 40.6972C101.406 40.6972 102.176 40.4907 102.894 40.0802C103.612 39.6697 104.206 39.0855 104.68 38.335C104.697 38.3073 104.71 38.2771 104.727 38.2519L104.972 40.4479H107.86L107.309 35.5068L108.228 27.594H105.339V27.589ZM102.743 38.1662C102.282 38.4055 101.788 38.5239 101.265 38.5239C100.741 38.5239 100.28 38.4055 99.8795 38.1662C99.479 37.927 99.1642 37.5971 98.9351 37.174C98.7059 36.7509 98.5926 36.2623 98.5926 35.7058C98.5926 35.1492 98.7059 34.6556 98.9351 34.2275C99.1642 33.7993 99.4765 33.4644 99.8795 33.2252C100.28 32.9859 100.741 32.8675 101.265 32.8675C101.788 32.8675 102.279 32.9859 102.743 33.2252C103.204 33.4644 103.614 33.7993 103.969 34.2275C104.324 34.6556 104.604 35.1492 104.803 35.7058C104.601 36.2623 104.324 36.7509 103.969 37.174C103.612 37.5971 103.204 37.927 102.743 38.1662Z" fill="#000119"/>
<path id="Vector_25" d="M119.037 33.4669C118.609 32.588 117.999 31.9055 117.209 31.422C116.418 30.9384 115.473 30.6967 114.37 30.6967C113.267 30.6967 112.328 30.9057 111.482 31.3237C110.636 31.7418 109.971 32.3236 109.487 33.069C109.004 33.8144 108.762 34.6833 108.762 35.673C108.762 36.6627 109.014 37.5543 109.522 38.3098C110.029 39.0678 110.724 39.6546 111.61 40.0701C112.497 40.4857 113.499 40.6972 114.625 40.6972C115.549 40.6972 116.425 40.5713 117.254 40.322C118.082 40.0726 118.81 39.7226 119.432 39.2794V37.4107C118.853 37.7885 118.203 38.0806 117.478 38.2871C116.755 38.4936 116.037 38.5969 115.325 38.5969C114.534 38.5969 113.862 38.4735 113.305 38.2292C112.748 37.9849 112.325 37.6273 112.036 37.1614C111.925 36.9826 111.842 36.7836 111.774 36.5771H119.682C119.682 35.3859 119.468 34.3509 119.039 33.4719L119.037 33.4669ZM112.91 33.0917C113.328 32.8625 113.819 32.7492 114.388 32.7492C114.912 32.7492 115.368 32.8549 115.758 33.0665C116.148 33.278 116.456 33.5777 116.685 33.9681C116.816 34.1897 116.911 34.444 116.982 34.7185H111.683C111.741 34.4743 111.827 34.2501 111.943 34.0411C112.172 33.6356 112.494 33.3183 112.912 33.0891L112.91 33.0917Z" fill="#000119"/>
<path id="Vector_26" d="M127.244 30.6942C126.6 30.6942 126.043 30.8251 125.575 31.087C125.106 31.349 124.716 31.704 124.399 32.1548C124.121 32.5477 123.9 33.001 123.729 33.5047L123.303 30.9435H120.482L121.084 34.0663V40.4429H123.872V36.3354C123.872 35.5899 124.001 34.9729 124.255 34.4818C124.512 33.9933 124.862 33.6306 125.308 33.3964C125.753 33.1622 126.255 33.0463 126.811 33.0463C127.068 33.0463 127.34 33.064 127.63 33.0967C127.919 33.1295 128.209 33.1798 128.498 33.2478V30.8428C128.31 30.7974 128.106 30.7622 127.889 30.7345C127.672 30.7068 127.458 30.6917 127.247 30.6917L127.244 30.6942Z" fill="#000119"/>
<path id="Vector_27" d="M139.64 36.0709C139.401 35.6705 138.985 35.3456 138.396 35.0938C137.807 34.8445 136.998 34.6732 135.976 34.5851L133.671 34.4012C133.037 34.3458 132.604 34.2476 132.369 34.1091C132.135 33.9706 132.019 33.7893 132.019 33.5676C132.019 33.2453 132.208 33.0035 132.586 32.8423C132.964 32.6812 133.505 32.6006 134.205 32.6006C134.827 32.6006 135.336 32.6686 135.724 32.802C136.114 32.9355 136.411 33.1068 136.618 33.3108C136.824 33.5173 136.948 33.7364 136.993 33.9706H139.831C139.763 33.3259 139.489 32.7567 139.005 32.2681C138.522 31.7796 137.877 31.3943 137.076 31.1172C136.275 30.8402 135.361 30.6992 134.339 30.6992C133.316 30.6992 132.455 30.815 131.692 31.0492C130.929 31.2835 130.337 31.6285 129.914 32.0843C129.491 32.5401 129.279 33.1093 129.279 33.7867C129.279 34.2778 129.41 34.7236 129.672 35.1316C129.934 35.537 130.375 35.8745 130.999 36.1414C131.621 36.4084 132.463 36.5872 133.52 36.6753L135.291 36.8088C136.046 36.8768 136.567 36.975 136.852 37.1085C137.137 37.242 137.278 37.4359 137.278 37.6928C137.278 38.0504 137.074 38.3173 136.668 38.4936C136.263 38.6724 135.663 38.7606 134.873 38.7606C134.306 38.7606 133.807 38.7001 133.379 38.5767C132.951 38.4533 132.604 38.2796 132.337 38.0504C132.07 37.8212 131.903 37.5517 131.835 37.2395H128.997C129.03 37.9295 129.287 38.5364 129.765 39.0603C130.244 39.5841 130.911 39.987 131.77 40.2716C132.626 40.5562 133.634 40.6972 134.792 40.6972C135.95 40.6972 136.867 40.5713 137.648 40.322C138.426 40.0726 139.013 39.7024 139.408 39.2114C139.804 38.7228 140 38.1385 140 37.4586C140 36.9347 139.879 36.4739 139.64 36.0734V36.0709Z" fill="#000119"/>
</g>
</g>
</svg>
