<svg xmlns="http://www.w3.org/2000/svg" width="20" height="20" viewBox="0 0 20 20" fill="none">
  <mask id="mask0_577_2688" style="mask-type:alpha" maskUnits="userSpaceOnUse" x="0" y="0" width="20" height="20">
    <rect width="20" height="20" fill="#ffffff"/>
  </mask>
  <g mask="url(#mask0_577_2688)">
    <path d="M4.4231 17.0833C4.00216 17.0833 3.64585 16.9375 3.35419 16.6458C3.06252 16.3541 2.91669 15.9978 2.91669 15.5769V4.4231C2.91669 4.00216 3.06252 3.64585 3.35419 3.35419C3.64585 3.06252 4.00216 2.91669 4.4231 2.91669H9.05448C9.23183 2.91669 9.38033 2.97652 9.49998 3.09619C9.61963 3.21584 9.67946 3.36434 9.67946 3.54169C9.67946 3.71903 9.61963 3.86753 9.49998 3.98719C9.38033 4.10684 9.23183 4.16667 9.05448 4.16667H4.4231C4.35899 4.16667 4.30022 4.19338 4.24679 4.24679C4.19337 4.30022 4.16667 4.35899 4.16667 4.4231V15.5769C4.16667 15.641 4.19337 15.6998 4.24679 15.7532C4.30022 15.8066 4.35899 15.8333 4.4231 15.8333H15.5769C15.641 15.8333 15.6998 15.8066 15.7532 15.7532C15.8066 15.6998 15.8333 15.641 15.8333 15.5769V10.9455C15.8333 10.7682 15.8932 10.6197 16.0128 10.5C16.1325 10.3804 16.281 10.3205 16.4583 10.3205C16.6357 10.3205 16.7842 10.3804 16.9038 10.5C17.0235 10.6197 17.0833 10.7682 17.0833 10.9455V15.5769C17.0833 15.9978 16.9375 16.3541 16.6458 16.6458C16.3541 16.9375 15.9978 17.0833 15.5769 17.0833H4.4231ZM15.8333 5.04485L8.53846 12.3397C8.42307 12.4551 8.27804 12.5141 8.10338 12.5168C7.92869 12.5195 7.78099 12.4605 7.66027 12.3397C7.53955 12.219 7.47919 12.0726 7.47919 11.9006C7.47919 11.7286 7.53955 11.5823 7.66027 11.4615L14.9551 4.16667H12.2916C12.1143 4.16667 11.9658 4.10684 11.8461 3.98719C11.7265 3.86753 11.6667 3.71903 11.6667 3.54169C11.6667 3.36434 11.7265 3.21584 11.8461 3.09619C11.9658 2.97652 12.1143 2.91669 12.2916 2.91669H16.3301C16.5448 2.91669 16.7241 2.98854 16.8678 3.13225C17.0115 3.27594 17.0833 3.45516 17.0833 3.6699V7.70835C17.0833 7.8857 17.0235 8.0342 16.9038 8.15385C16.7842 8.27351 16.6357 8.33333 16.4583 8.33333C16.281 8.33333 16.1325 8.27351 16.0128 8.15385C15.8932 8.0342 15.8333 7.8857 15.8333 7.70835V5.04485Z" fill="#000"/>
  </g>
</svg>