<svg xmlns="http://www.w3.org/2000/svg" width="21" height="20" viewBox="0 0 21 20" fill="none">
  <mask id="mask0_728_556" style="mask-type:alpha" maskUnits="userSpaceOnUse" x="0" y="0" width="21" height="20">
    <rect x="0.5" width="20" height="20" fill="#D9D9D9"/>
  </mask>
  <g mask="url(#mask0_728_556)">
    <path d="M12.375 17.8334C12.0556 18.1528 11.6597 18.3125 11.1875 18.3125C10.7153 18.3125 10.3194 18.1528 10 17.8334L2.66666 10.5C2.51389 10.3472 2.39236 10.1667 2.30208 9.95835C2.2118 9.75002 2.16666 9.5278 2.16666 9.29169V3.33335C2.16666 2.87502 2.32986 2.48266 2.65625 2.15627C2.98264 1.82988 3.375 1.66669 3.83333 1.66669H9.79166C10.0278 1.66669 10.25 1.71183 10.4583 1.8021C10.6667 1.89238 10.8472 2.01391 11 2.16669L18.3333 9.52085C18.6528 9.8403 18.8125 10.2327 18.8125 10.6979C18.8125 11.1632 18.6528 11.5556 18.3333 11.875L12.375 17.8334ZM11.1875 16.6667L17.1458 10.7084L9.79166 3.33335H3.83333V9.29169L11.1875 16.6667ZM5.91666 6.66669C6.26389 6.66669 6.55903 6.54516 6.80208 6.3021C7.04514 6.05905 7.16666 5.76391 7.16666 5.41669C7.16666 5.06946 7.04514 4.77433 6.80208 4.53127C6.55903 4.28821 6.26389 4.16669 5.91666 4.16669C5.56944 4.16669 5.2743 4.28821 5.03125 4.53127C4.78819 4.77433 4.66666 5.06946 4.66666 5.41669C4.66666 5.76391 4.78819 6.05905 5.03125 6.3021C5.2743 6.54516 5.56944 6.66669 5.91666 6.66669Z" fill="#00001A"/>
  </g>
</svg>